<svg width="15" height="15" viewBox="0 0 15 15" fill="none" xmlns="http://www.w3.org/2000/svg">
<path d="M8.69658 6.86743C8.55215 6.86743 8.40771 6.81242 8.2977 6.70212C7.41784 5.82227 5.98621 5.82198 5.10607 6.70212C4.88604 6.92244 4.52834 6.92244 4.3083 6.70212C4.08799 6.48181 4.08799 6.12467 4.3083 5.90436C5.62823 4.58415 7.77582 4.58443 9.09546 5.90436C9.31578 6.12467 9.31578 6.48181 9.09546 6.70212C8.98545 6.81242 8.84073 6.86743 8.69658 6.86743Z" fill="#6C6C6C"/>
<path d="M8.29783 10.0859C7.43095 10.0859 6.56407 9.75582 5.90425 9.096C5.68393 8.87568 5.68393 8.51855 5.90425 8.29823C6.12429 8.07792 6.48198 8.07792 6.70202 8.29823C7.58187 9.17809 9.01351 9.17837 9.89365 8.29823C10.1137 8.07792 10.4714 8.07792 10.6914 8.29823C10.9117 8.51855 10.9117 8.87568 10.6914 9.096C10.0313 9.75582 9.16443 10.0859 8.29783 10.0859Z" fill="#6C6C6C"/>
<path d="M10.2921 9.26102C10.1477 9.26102 10.0033 9.20601 9.89326 9.09572C9.67295 8.8754 9.67295 8.51827 9.89326 8.29795L13.0448 5.14638C13.2649 4.92606 13.6226 4.92606 13.8426 5.14638C14.0629 5.36669 14.0629 5.72383 13.8426 5.94414L10.691 9.09572C10.581 9.20601 10.4366 9.26102 10.2921 9.26102Z" fill="#6C6C6C"/>
<path d="M5.54508 14.0082C5.40064 14.0082 5.25621 13.9532 5.14619 13.8429C4.92588 13.6225 4.92588 13.2654 5.14619 13.0451L6.90788 11.2834C7.12792 11.0631 7.48561 11.0631 7.70565 11.2834C7.92596 11.5037 7.92596 11.8609 7.70565 12.0812L5.94396 13.8429C5.83394 13.9532 5.68951 14.0082 5.54508 14.0082Z" fill="#6C6C6C"/>
<path d="M1.55558 10.0187C1.41114 10.0187 1.26671 9.96367 1.15669 9.85337C0.936376 9.63305 0.936376 9.27592 1.15669 9.0556L4.30826 5.90431C4.52858 5.684 4.88599 5.684 5.10603 5.90431C5.32635 6.12463 5.32635 6.48176 5.10603 6.70208L1.95446 9.85337C1.84416 9.96338 1.69973 10.0187 1.55558 10.0187Z" fill="#6C6C6C"/>
<path d="M7.69278 3.88204C7.54835 3.88204 7.4042 3.82703 7.2939 3.71701C7.07358 3.4967 7.07358 3.13956 7.2939 2.91897L9.05559 1.157C9.2759 0.936681 9.63304 0.936681 9.85363 1.157C10.074 1.37731 10.074 1.73445 9.85363 1.95505L8.09195 3.71701C7.98165 3.82675 7.83693 3.88204 7.69278 3.88204Z" fill="#6C6C6C"/>
<path d="M3.5504 14.816C2.67788 14.816 1.80536 14.4916 1.15682 13.8428C-0.140816 12.5452 -0.140816 10.353 1.15682 9.05537C1.37686 8.83506 1.73455 8.83506 1.95459 9.05537C2.17491 9.27569 2.17491 9.63282 1.95459 9.85314C1.08968 10.718 1.08968 12.1799 1.95459 13.0448C2.81949 13.9097 4.28131 13.9097 5.14622 13.0448C5.36625 12.8245 5.72395 12.8245 5.94398 13.0448C6.1643 13.2651 6.1643 13.6222 5.94398 13.8425C5.29545 14.4916 4.42292 14.816 3.5504 14.816Z" fill="#6C6C6C"/>
<path d="M13.4437 6.10947C13.2992 6.10947 13.1548 6.05447 13.0448 5.94417C12.8245 5.72385 12.8245 5.36672 13.0448 5.1464C13.9097 4.2815 13.9097 2.81968 13.0448 1.95477C12.1799 1.08987 10.718 1.08987 9.85314 1.95477C9.63311 2.17509 9.27541 2.17509 9.05537 1.95477C8.83506 1.73446 8.83506 1.37732 9.05537 1.15701C10.353 -0.140633 12.5452 -0.140633 13.8428 1.15701C15.1405 2.45465 15.1405 4.64681 13.8428 5.94445C13.7325 6.05447 13.5881 6.10947 13.4437 6.10947Z" fill="#6C6C6C"/>
</svg>
